<svg width="120" height="120" viewBox="0 0 120 120" fill="none" xmlns="http://www.w3.org/2000/svg">
  <rect width="120" height="120" rx="20" fill="transparent"/>
  <path
    d="M78.5 10L28 60.6C23.2 65.4 23.2 73.2 28 78L43.4 93.4L100.2 36.6L84.8 21.2C83.2 19.6 81 19 78.5 10Z"
    fill="#0E4AAE"
  />
  <path
    d="M44.2 94.2L28.6 109.8C26.4 112 27.9 116 31 116H48C50.6 116 53 115 54.8 113.2L65.8 102.2L44.2 94.2Z"
    fill="#24B6F2"
  />
  <path
    d="M74.2 79.6L58.2 95.6L74.4 111.8L90.4 95.8C95.2 91 95.2 83.2 90.4 78.4L84.8 72.8L74.2 79.6Z"
    fill="#1AA7E8"
  />
</svg>
