<svg id="svg" version="1.1" width="400" height="400" viewBox="0 0 400 400" xmlns="http://www.w3.org/2000/svg" xmlns:xlink="http://www.w3.org/1999/xlink"><g id="svgg"><path id="path0" d="M227.212 57.100 C 224.928 59.245,220.954 63.070,218.382 65.600 C 211.637 72.233,208.887 74.800,208.521 74.803 C 208.345 74.804,207.893 75.344,207.519 76.003 C 207.144 76.661,206.399 77.400,205.863 77.644 C 205.327 77.888,204.692 78.520,204.451 79.047 C 204.211 79.575,203.399 80.300,202.646 80.659 C 201.894 81.017,201.088 81.727,200.857 82.234 C 200.626 82.742,199.939 83.482,199.332 83.879 C 198.431 84.467,194.132 88.593,184.410 98.200 C 183.964 98.640,183.375 99.219,183.100 99.487 C 182.376 100.193,180.904 101.669,176.203 106.400 C 173.909 108.710,171.758 110.870,171.425 111.200 C 171.091 111.530,170.319 112.294,169.709 112.897 C 167.458 115.124,166.773 115.814,166.235 116.400 C 165.932 116.730,165.260 117.389,164.742 117.865 C 164.224 118.341,163.620 118.920,163.400 119.151 C 163.180 119.382,161.650 120.927,160.000 122.583 C 158.350 124.240,155.880 126.721,154.510 128.098 C 151.250 131.374,150.342 132.279,147.935 134.649 C 147.251 135.323,143.134 139.469,141.310 141.321 C 140.920 141.718,139.935 142.798,139.122 143.721 C 138.309 144.645,137.163 145.875,136.576 146.455 C 134.710 148.299,134.078 148.958,132.410 150.800 C 131.514 151.790,129.360 154.130,127.623 156.000 C 122.952 161.028,120.000 164.456,120.000 164.850 C 120.000 165.041,119.384 165.851,118.631 166.650 C 117.877 167.448,117.150 168.544,117.015 169.084 C 116.879 169.623,116.148 170.967,115.390 172.070 C 114.631 173.172,113.815 174.801,113.576 175.690 C 113.336 176.579,112.722 178.227,112.211 179.353 C 110.627 182.840,110.405 184.368,110.402 191.767 C 110.400 199.532,110.865 203.470,112.023 205.491 C 112.429 206.201,113.138 208.001,113.598 209.491 C 114.057 210.981,114.867 212.830,115.398 213.600 C 115.929 214.370,116.744 215.866,117.211 216.924 C 117.677 217.982,118.323 218.949,118.646 219.073 C 118.970 219.197,119.587 219.991,120.019 220.838 C 120.451 221.684,121.299 222.900,121.902 223.538 C 122.506 224.177,124.166 225.982,125.591 227.550 C 128.954 231.250,130.520 231.474,133.286 228.651 C 134.229 227.688,137.160 224.959,139.800 222.586 C 142.440 220.212,145.154 217.714,145.830 217.035 C 146.507 216.356,148.037 214.930,149.230 213.866 C 150.424 212.803,151.550 211.782,151.732 211.599 C 151.915 211.415,152.609 210.729,153.275 210.075 C 153.940 209.420,154.781 208.589,155.142 208.227 C 155.504 207.865,157.638 205.731,159.884 203.485 C 162.130 201.238,165.190 198.207,166.684 196.748 C 169.144 194.345,170.398 193.075,171.634 191.732 C 174.037 189.122,177.305 186.128,178.300 185.626 C 178.795 185.376,179.200 184.979,179.200 184.744 C 179.200 184.183,187.387 176.000,187.949 176.000 C 188.187 176.000,188.688 175.505,189.062 174.900 C 189.436 174.295,190.386 173.154,191.171 172.365 C 191.957 171.576,192.998 170.496,193.484 169.965 C 194.303 169.071,195.037 168.331,196.621 166.800 C 196.962 166.470,198.357 165.046,199.721 163.635 C 201.084 162.225,205.260 157.958,209.000 154.154 C 212.740 150.350,216.277 146.594,216.859 145.807 C 217.441 145.020,219.691 142.538,221.859 140.290 C 224.027 138.043,226.767 135.123,227.949 133.802 C 229.131 132.481,231.381 129.992,232.949 128.271 C 234.517 126.551,236.017 124.732,236.283 124.229 C 236.548 123.726,237.222 123.015,237.781 122.649 C 238.339 122.284,239.052 121.372,239.364 120.624 C 239.677 119.876,240.267 119.085,240.676 118.866 C 241.085 118.647,242.112 117.463,242.959 116.234 C 243.805 115.005,244.648 114.000,244.832 114.000 C 245.016 114.000,245.643 113.187,246.225 112.193 C 246.807 111.200,247.617 110.153,248.024 109.868 C 248.431 109.583,249.136 108.483,249.590 107.423 C 250.044 106.364,250.842 104.990,251.363 104.371 C 251.956 103.666,252.557 102.080,252.973 100.123 C 253.337 98.405,253.829 96.550,254.066 96.000 C 254.802 94.290,255.159 85.217,254.554 83.600 C 254.266 82.830,253.646 80.580,253.177 78.600 C 252.708 76.620,251.900 74.370,251.382 73.600 C 250.863 72.830,249.975 71.182,249.408 69.938 C 248.841 68.694,248.120 67.578,247.806 67.458 C 247.493 67.337,246.881 66.555,246.448 65.719 C 245.341 63.585,244.007 62.040,239.200 57.324 C 233.390 51.625,233.050 51.618,227.212 57.100 " stroke="none" fill="#094ea7" fill-rule="evenodd"></path><path id="path1" d="M243.193 152.361 C 241.677 153.305,226.359 167.861,219.249 175.112 C 218.067 176.319,215.929 178.366,214.500 179.661 C 208.736 184.885,208.014 189.452,212.337 193.346 C 212.793 193.757,213.547 195.240,214.014 196.642 C 214.481 198.044,215.037 199.299,215.250 199.431 C 215.850 199.802,219.953 208.711,220.666 211.192 C 221.016 212.406,221.648 214.086,222.071 214.924 C 222.494 215.762,223.361 218.372,223.997 220.724 C 224.633 223.076,225.417 225.720,225.739 226.600 C 226.062 227.480,226.449 229.910,226.599 232.000 C 227.311 241.892,227.233 241.927,242.934 224.645 C 244.510 222.910,247.195 220.035,248.900 218.257 C 250.605 216.479,252.000 214.879,252.000 214.703 C 252.000 214.526,252.678 213.621,253.507 212.691 C 256.359 209.492,258.757 206.121,259.716 203.963 C 260.244 202.773,261.155 201.099,261.740 200.242 C 262.324 199.386,262.999 197.946,263.240 197.042 C 263.481 196.139,264.064 194.320,264.536 193.000 C 265.751 189.598,265.739 182.765,264.512 179.600 C 264.042 178.390,263.267 176.140,262.788 174.600 C 262.309 173.060,261.621 171.350,261.259 170.800 C 260.896 170.250,260.145 168.720,259.589 167.400 C 257.728 162.983,251.354 155.205,248.053 153.322 C 247.034 152.740,245.927 152.035,245.593 151.755 C 245.090 151.332,244.681 151.435,243.193 152.361 M190.004 204.673 C 189.236 205.007,187.886 205.914,187.004 206.689 C 184.453 208.928,172.551 220.351,169.855 223.147 C 168.505 224.548,166.903 226.168,166.296 226.747 C 162.922 229.966,148.926 244.224,146.957 246.448 C 146.493 246.972,145.773 247.707,145.357 248.082 C 144.941 248.456,143.790 249.701,142.800 250.847 C 141.810 251.994,138.553 255.557,135.563 258.766 C 128.698 266.131,127.557 267.448,126.440 269.300 C 125.942 270.125,125.382 270.800,125.194 270.800 C 125.007 270.800,124.733 271.180,124.586 271.644 C 124.439 272.109,123.725 273.145,123.001 273.947 C 121.791 275.286,119.911 279.299,117.926 284.780 C 114.977 292.922,115.518 306.522,119.016 312.200 C 119.287 312.640,119.901 314.206,120.380 315.680 C 121.181 318.142,123.463 322.169,125.611 324.913 C 126.090 325.525,126.783 326.644,127.150 327.399 C 127.850 328.838,131.426 332.800,132.025 332.800 C 132.216 332.800,133.011 333.361,133.792 334.046 C 135.129 335.220,135.284 335.262,136.477 334.768 C 138.212 334.050,141.991 331.488,143.170 330.233 C 143.703 329.665,144.374 329.200,144.661 329.200 C 144.947 329.200,145.481 328.742,145.848 328.183 C 146.215 327.623,146.961 326.931,147.508 326.645 C 148.530 326.109,153.466 321.647,157.762 317.375 C 165.929 309.251,178.436 296.313,179.059 295.343 C 179.463 294.714,181.100 292.888,182.697 291.286 C 184.294 289.683,185.600 288.189,185.600 287.967 C 185.600 287.745,186.299 286.806,187.153 285.881 C 191.140 281.566,192.257 280.144,195.975 274.649 C 196.291 274.182,196.976 273.330,197.497 272.755 C 198.017 272.181,198.956 270.627,199.582 269.304 C 200.208 267.980,200.901 266.785,201.121 266.649 C 202.586 265.743,205.523 258.046,206.151 253.465 C 207.250 245.447,206.404 228.932,204.794 226.993 C 204.601 226.760,203.882 225.050,203.198 223.194 C 202.513 221.338,201.621 219.275,201.214 218.610 C 200.807 217.944,200.011 216.011,199.444 214.313 C 198.196 210.570,193.033 203.802,191.603 204.033 C 191.491 204.051,190.772 204.339,190.004 204.673 " stroke="none" fill="#0aadfb" fill-rule="evenodd"></path><path id="path2" d="M0.000 200.000 L 0.000 400.000 200.000 400.000 L 400.000 400.000 400.000 200.000 L 400.000 0.000 200.000 0.000 L 0.000 0.000 0.000 200.000 M236.982 51.540 C 237.972 52.453,238.970 53.200,239.200 53.200 C 239.429 53.200,239.803 53.608,240.031 54.107 C 240.258 54.606,241.075 55.447,241.847 55.976 C 242.619 56.505,243.518 57.455,243.845 58.086 C 244.171 58.718,244.895 59.443,245.454 59.697 C 246.054 59.971,246.929 61.067,247.595 62.380 C 248.213 63.601,249.179 65.028,249.739 65.550 C 250.300 66.073,250.873 67.023,251.014 67.662 C 251.154 68.301,251.788 69.313,252.422 69.912 C 253.209 70.654,253.780 71.803,254.218 73.526 C 254.571 74.916,255.291 76.689,255.819 77.466 C 258.426 81.307,257.927 100.800,255.222 100.800 C 254.990 100.800,254.800 101.217,254.800 101.727 C 254.800 103.630,253.574 106.799,252.588 107.445 C 252.028 107.812,251.427 108.757,251.187 109.649 C 250.776 111.174,248.687 113.985,245.872 116.800 C 245.102 117.570,244.251 118.686,243.981 119.280 C 243.711 119.874,242.992 120.534,242.384 120.746 C 241.603 121.018,241.197 121.502,241.001 122.395 C 240.826 123.193,240.278 123.929,239.513 124.394 C 238.848 124.799,237.982 125.821,237.589 126.665 C 237.196 127.509,235.500 129.640,233.820 131.400 C 232.139 133.160,230.504 135.082,230.186 135.672 C 229.869 136.261,229.247 136.858,228.804 136.999 C 228.362 137.139,228.000 137.427,228.000 137.637 C 228.000 137.848,227.145 138.871,226.100 139.911 C 225.055 140.950,224.015 142.160,223.788 142.600 C 223.562 143.040,222.886 143.635,222.287 143.922 C 221.688 144.210,220.919 144.983,220.579 145.640 C 220.240 146.297,219.508 147.041,218.954 147.294 C 218.400 147.546,217.698 148.349,217.393 149.079 C 217.086 149.814,216.393 150.575,215.839 150.785 C 215.288 150.995,214.551 151.721,214.200 152.400 C 213.849 153.079,213.121 153.835,212.583 154.081 C 212.045 154.326,211.248 155.131,210.812 155.869 C 210.376 156.608,209.574 157.382,209.029 157.589 C 208.484 157.796,207.751 158.521,207.400 159.200 C 207.049 159.879,206.325 160.600,205.792 160.803 C 205.252 161.008,204.564 161.792,204.238 162.572 C 203.851 163.497,203.300 164.060,202.612 164.233 C 201.927 164.405,201.374 164.967,200.993 165.879 C 200.631 166.746,199.986 167.426,199.271 167.696 C 198.602 167.948,197.948 168.603,197.695 169.274 C 197.421 169.998,196.804 170.580,196.018 170.854 C 195.196 171.140,194.586 171.738,194.219 172.617 C 193.913 173.348,193.130 174.223,192.478 174.559 C 191.812 174.904,191.180 175.627,191.033 176.212 C 190.861 176.897,190.298 177.451,189.386 177.832 C 188.624 178.150,188.000 178.622,188.000 178.880 C 188.000 179.580,186.353 181.199,185.630 181.209 C 185.284 181.213,184.730 181.798,184.400 182.509 C 184.051 183.260,183.256 184.039,182.500 184.372 C 181.748 184.703,181.200 185.239,181.200 185.643 C 181.200 186.390,179.420 188.000,178.595 188.000 C 178.321 188.000,177.880 188.525,177.614 189.166 C 177.345 189.816,176.608 190.548,175.948 190.822 C 175.250 191.111,174.545 191.836,174.231 192.587 C 173.906 193.364,173.211 194.064,172.449 194.380 C 171.762 194.664,171.200 195.179,171.200 195.523 C 171.200 196.299,169.646 198.000,168.936 198.000 C 168.647 198.000,168.146 198.633,167.823 199.406 C 167.380 200.468,166.929 200.874,165.986 201.063 C 165.173 201.225,164.611 201.645,164.375 202.266 C 164.175 202.791,163.365 203.602,162.574 204.068 C 161.783 204.535,160.972 205.348,160.771 205.875 C 160.571 206.402,159.868 207.141,159.210 207.517 C 158.551 207.892,157.836 208.702,157.622 209.315 C 157.373 210.025,156.779 210.589,155.987 210.865 C 155.303 211.103,154.583 211.719,154.387 212.234 C 154.191 212.749,153.304 213.629,152.416 214.190 C 151.527 214.751,150.800 215.476,150.800 215.800 C 150.800 216.124,150.094 216.835,149.232 217.380 C 148.369 217.924,147.542 218.753,147.393 219.222 C 147.245 219.690,146.504 220.332,145.747 220.648 C 144.970 220.973,144.207 221.657,143.992 222.221 C 143.783 222.770,142.988 223.588,142.224 224.039 C 141.460 224.489,140.725 225.207,140.589 225.633 C 140.454 226.060,139.861 226.661,139.272 226.969 C 138.359 227.447,134.612 230.945,132.491 233.300 C 130.882 235.085,125.200 233.114,125.200 230.772 C 125.200 230.567,124.932 230.400,124.605 230.400 C 124.278 230.400,123.565 229.694,123.020 228.832 C 122.476 227.969,121.676 227.151,121.242 227.013 C 120.809 226.876,119.964 225.917,119.365 224.882 C 118.766 223.847,117.674 222.324,116.938 221.499 C 116.202 220.673,115.600 219.650,115.600 219.224 C 115.600 218.799,114.976 217.854,114.212 217.125 C 113.214 216.172,112.655 215.140,112.221 213.451 C 111.890 212.159,111.350 210.899,111.022 210.651 C 110.069 209.930,109.330 207.666,108.795 203.824 C 108.520 201.858,108.049 199.658,107.748 198.937 C 106.956 197.041,106.977 185.697,107.774 184.558 C 108.090 184.107,108.622 182.173,108.956 180.260 C 109.403 177.699,109.877 176.337,110.753 175.091 C 111.408 174.161,112.168 172.624,112.442 171.676 C 112.719 170.721,113.444 169.529,114.070 169.002 C 114.692 168.479,115.200 167.853,115.200 167.610 C 115.200 166.738,116.835 163.985,117.643 163.498 C 118.096 163.224,118.814 162.328,119.238 161.506 C 119.663 160.684,120.449 159.724,120.985 159.373 C 121.521 159.022,122.323 158.119,122.766 157.367 C 123.210 156.615,123.847 156.000,124.181 156.000 C 124.516 156.000,125.235 155.294,125.780 154.432 C 126.324 153.569,127.142 152.745,127.596 152.601 C 128.051 152.457,128.732 151.683,129.111 150.880 C 129.490 150.078,130.228 149.209,130.750 148.949 C 131.273 148.689,131.965 147.931,132.288 147.264 C 132.617 146.584,133.378 145.877,134.021 145.653 C 134.759 145.395,135.374 144.759,135.747 143.865 C 136.066 143.102,136.690 142.362,137.134 142.221 C 137.579 142.080,138.310 141.341,138.759 140.579 C 139.209 139.817,139.989 139.006,140.493 138.776 C 140.997 138.546,141.723 137.812,142.106 137.144 C 142.490 136.476,143.327 135.732,143.967 135.490 C 144.767 135.188,145.201 134.695,145.358 133.908 C 145.522 133.092,145.973 132.603,146.938 132.200 C 147.760 131.856,148.480 131.174,148.778 130.452 C 149.059 129.775,149.786 129.054,150.478 128.768 C 151.192 128.472,151.847 127.810,152.076 127.154 C 152.289 126.542,153.079 125.678,153.832 125.234 C 154.584 124.790,155.200 124.184,155.200 123.887 C 155.200 123.293,160.146 118.400,160.747 118.400 C 160.953 118.400,161.495 117.766,161.952 116.992 C 162.515 116.037,163.172 115.506,163.991 115.342 C 164.717 115.197,165.200 114.850,165.200 114.476 C 165.200 113.719,166.748 112.000,167.430 112.000 C 167.700 112.000,168.298 111.361,168.759 110.580 C 169.220 109.799,170.100 108.984,170.714 108.770 C 171.401 108.531,172.009 107.911,172.291 107.165 C 172.573 106.418,173.200 105.779,173.918 105.508 C 174.685 105.219,175.254 104.606,175.571 103.730 C 175.852 102.953,176.547 102.138,177.227 101.786 C 177.872 101.452,178.400 100.972,178.400 100.718 C 178.400 100.003,183.573 95.200,184.342 95.200 C 184.734 95.200,185.219 94.686,185.480 93.993 C 185.779 93.200,186.427 92.581,187.368 92.188 C 188.272 91.810,188.800 91.319,188.800 90.857 C 188.800 90.002,189.819 89.011,191.100 88.620 C 191.595 88.470,192.000 88.026,192.000 87.635 C 192.000 86.825,193.020 85.812,194.200 85.448 C 194.640 85.313,195.316 84.646,195.702 83.966 C 196.088 83.286,196.932 82.530,197.578 82.286 C 198.256 82.030,198.850 81.455,198.983 80.926 C 199.118 80.386,199.867 79.676,200.806 79.197 C 201.683 78.750,202.400 78.149,202.400 77.862 C 202.400 77.252,203.889 75.829,204.900 75.472 C 205.285 75.336,205.600 74.981,205.600 74.682 C 205.600 74.064,207.070 72.635,208.066 72.285 C 208.432 72.157,208.974 71.546,209.270 70.929 C 209.565 70.312,210.279 69.581,210.855 69.305 C 211.431 69.029,212.384 68.172,212.972 67.401 C 213.560 66.631,214.308 66.000,214.634 66.000 C 214.960 66.000,215.590 65.385,216.034 64.633 C 216.477 63.881,217.270 62.984,217.795 62.640 C 218.320 62.296,218.987 61.518,219.278 60.911 C 219.569 60.304,220.301 59.571,220.905 59.281 C 221.509 58.992,222.284 58.212,222.627 57.548 C 222.973 56.879,223.781 56.156,224.438 55.927 C 225.090 55.699,225.893 54.993,226.222 54.357 C 226.551 53.720,227.016 53.200,227.254 53.200 C 227.493 53.200,228.507 52.370,229.507 51.355 C 231.949 48.878,234.153 48.933,236.982 51.540 M245.979 147.579 C 246.407 148.007,247.352 148.662,248.079 149.033 C 249.469 149.745,251.598 151.693,255.900 156.192 C 256.835 157.170,257.600 158.123,257.600 158.310 C 257.600 158.496,257.920 158.998,258.311 159.425 C 259.663 160.899,260.748 162.653,261.033 163.824 C 261.190 164.471,261.908 165.580,262.628 166.289 C 263.578 167.224,264.077 168.213,264.443 169.889 C 264.721 171.160,265.185 172.344,265.475 172.520 C 268.757 174.518,268.832 196.133,265.571 200.237 C 264.927 201.047,264.400 201.976,264.400 202.301 C 264.400 203.084,262.748 206.000,262.304 206.000 C 262.113 206.000,261.523 206.980,260.993 208.178 C 260.463 209.376,259.683 210.541,259.260 210.768 C 258.837 210.994,258.115 211.817,257.655 212.596 C 257.196 213.375,256.387 214.177,255.859 214.378 C 255.326 214.580,254.708 215.287,254.472 215.966 C 254.237 216.639,252.640 218.628,250.923 220.386 C 247.406 223.986,247.151 224.273,244.797 227.256 C 242.949 229.597,242.356 230.245,237.713 235.000 C 235.994 236.760,234.266 238.703,233.873 239.318 C 233.480 239.933,232.737 240.628,232.223 240.862 C 231.709 241.097,231.105 241.691,230.881 242.183 C 230.656 242.675,229.602 243.483,228.536 243.978 C 227.471 244.473,226.227 245.222,225.772 245.642 C 223.732 247.521,223.052 245.423,222.733 236.275 C 222.401 226.743,221.950 223.459,220.619 220.894 C 220.078 219.852,219.351 217.605,219.002 215.901 C 218.632 214.095,217.880 212.009,217.199 210.901 C 216.556 209.855,215.799 208.100,215.515 207.000 C 215.232 205.900,214.601 204.640,214.112 204.200 C 213.578 203.718,212.903 202.214,212.415 200.417 C 211.970 198.777,211.331 197.281,210.997 197.094 C 210.662 196.907,209.870 195.729,209.238 194.477 C 208.605 193.225,207.709 191.858,207.246 191.440 C 204.927 189.346,205.171 182.971,207.600 182.200 C 208.045 182.059,208.680 181.419,209.011 180.778 C 209.342 180.138,210.158 179.332,210.824 178.988 C 211.490 178.643,212.242 177.907,212.495 177.351 C 212.749 176.795,213.458 176.080,214.071 175.763 C 214.685 175.446,215.463 174.652,215.801 173.999 C 216.138 173.346,216.868 172.698,217.421 172.559 C 217.975 172.420,218.703 171.775,219.039 171.125 C 219.375 170.475,220.249 169.590,220.982 169.158 C 221.715 168.725,222.405 168.023,222.517 167.596 C 222.629 167.169,223.350 166.448,224.121 165.994 C 224.891 165.539,225.632 164.728,225.767 164.191 C 225.901 163.654,226.538 162.942,227.182 162.609 C 227.826 162.276,228.674 161.460,229.066 160.796 C 229.459 160.131,230.264 159.373,230.855 159.112 C 231.446 158.850,232.213 158.043,232.559 157.318 C 232.904 156.593,233.377 156.000,233.608 156.000 C 234.046 156.000,237.065 153.241,240.104 150.063 C 242.561 147.493,244.903 146.503,245.979 147.579 M193.620 200.210 C 194.269 200.546,194.800 200.966,194.800 201.143 C 194.800 201.320,195.242 201.701,195.782 201.990 C 196.322 202.279,197.065 203.165,197.433 203.958 C 197.801 204.751,198.588 205.886,199.182 206.480 C 200.198 207.496,201.200 209.906,201.200 211.332 C 201.200 211.684,201.723 212.568,202.363 213.297 C 203.002 214.025,203.830 215.667,204.202 216.946 C 204.573 218.225,205.420 220.144,206.083 221.210 C 206.967 222.632,207.397 223.981,207.698 226.274 C 207.924 227.993,208.714 231.932,209.454 235.026 C 211.299 242.736,211.204 249.794,209.205 253.667 C 208.788 254.474,208.246 256.606,207.999 258.405 C 207.472 262.254,207.069 263.448,205.840 264.800 C 205.340 265.350,204.618 266.653,204.234 267.696 C 203.851 268.738,203.089 269.944,202.542 270.374 C 201.995 270.804,201.367 271.809,201.147 272.607 C 200.927 273.404,200.161 274.719,199.446 275.528 C 198.730 276.338,197.736 277.677,197.237 278.505 C 196.737 279.333,195.969 280.202,195.530 280.437 C 195.091 280.672,194.477 281.476,194.164 282.224 C 193.852 282.972,193.138 283.884,192.579 284.251 C 192.019 284.617,191.312 285.514,191.007 286.244 C 190.661 287.072,190.082 287.665,189.468 287.819 C 188.771 287.994,188.289 288.575,187.817 289.811 C 187.170 291.506,184.242 294.800,183.382 294.800 C 183.148 294.800,182.336 295.815,181.578 297.055 C 180.820 298.296,179.878 299.601,179.484 299.955 C 179.091 300.310,178.371 301.017,177.884 301.526 C 177.398 302.036,175.953 303.476,174.674 304.726 C 173.395 305.977,171.145 308.212,169.674 309.693 C 168.203 311.174,166.730 312.656,166.400 312.986 C 164.237 315.149,163.622 315.774,162.100 317.358 C 161.165 318.332,160.400 319.320,160.400 319.554 C 160.400 319.788,159.849 320.264,159.176 320.613 C 158.502 320.961,156.512 322.676,154.753 324.423 C 152.993 326.170,151.386 327.600,151.181 327.600 C 150.976 327.600,149.815 328.500,148.600 329.600 C 147.385 330.700,146.128 331.600,145.806 331.600 C 145.484 331.600,144.938 332.146,144.593 332.813 C 144.177 333.618,143.561 334.108,142.765 334.267 C 141.985 334.423,141.355 334.913,140.965 335.669 C 140.440 336.684,139.496 337.310,137.200 338.165 C 136.870 338.288,136.223 338.665,135.761 339.003 C 134.276 340.089,125.915 332.688,125.375 329.809 C 125.184 328.789,124.779 328.203,123.981 327.790 C 123.363 327.470,122.735 326.827,122.587 326.360 C 122.439 325.893,121.739 324.856,121.031 324.056 C 119.762 322.621,119.092 321.243,118.628 319.114 C 118.498 318.517,117.957 317.593,117.426 317.062 C 116.548 316.185,115.200 312.687,115.200 311.289 C 115.200 310.978,114.860 310.246,114.445 309.662 C 111.884 306.058,111.716 290.482,114.184 285.400 C 114.718 284.300,115.274 282.770,115.420 282.000 C 115.711 280.467,117.548 276.800,118.026 276.800 C 118.190 276.800,118.606 275.976,118.949 274.968 C 119.292 273.961,120.119 272.514,120.787 271.754 C 121.454 270.994,122.000 270.136,122.000 269.848 C 122.000 269.560,122.900 268.296,124.000 267.039 C 125.100 265.782,126.000 264.593,126.000 264.397 C 126.000 263.866,130.490 259.357,131.306 259.069 C 131.694 258.932,132.180 258.378,132.386 257.837 C 132.592 257.296,133.326 256.437,134.019 255.927 C 134.711 255.417,135.522 254.530,135.820 253.956 C 136.118 253.382,136.900 252.690,137.558 252.417 C 138.382 252.076,138.836 251.548,139.018 250.719 C 139.179 249.983,139.729 249.260,140.433 248.858 C 141.065 248.496,141.787 247.709,142.036 247.110 C 142.307 246.457,143.009 245.832,143.785 245.551 C 144.686 245.225,145.228 244.679,145.559 243.762 C 145.822 243.036,146.395 242.329,146.833 242.189 C 147.271 242.050,148.061 241.253,148.588 240.418 C 149.116 239.583,149.973 238.793,150.493 238.662 C 151.056 238.521,151.715 237.847,152.119 237.000 C 152.493 236.217,153.114 235.456,153.499 235.310 C 154.273 235.017,155.200 234.197,155.200 233.806 C 155.200 233.246,163.190 225.584,164.158 225.216 C 164.766 224.985,165.200 224.510,165.200 224.074 C 165.200 223.231,169.844 218.400,170.654 218.400 C 170.943 218.400,171.457 217.863,171.796 217.207 C 172.136 216.550,172.905 215.758,173.507 215.446 C 174.108 215.133,175.017 214.311,175.527 213.619 C 176.037 212.926,176.895 212.192,177.434 211.987 C 177.973 211.782,178.589 211.154,178.804 210.591 C 179.018 210.028,179.704 209.274,180.328 208.915 C 180.953 208.557,181.765 207.738,182.134 207.096 C 182.502 206.454,183.343 205.726,184.002 205.477 C 184.661 205.228,185.200 204.808,185.200 204.543 C 185.200 204.278,185.751 203.642,186.425 203.130 C 187.098 202.619,188.313 201.620,189.125 200.911 C 190.766 199.476,191.868 199.304,193.620 200.210 " stroke="none" fill="#fbfbfc" fill-rule="evenodd"></path><path id="path3" d="M230.598 51.198 C 228.615 53.335,205.127 76.107,197.797 83.000 C 195.926 84.760,194.081 86.524,193.697 86.920 C 193.314 87.316,192.460 88.171,191.800 88.819 C 191.140 89.467,190.450 90.164,190.268 90.367 C 190.085 90.569,189.365 91.297,188.668 91.983 C 186.580 94.038,186.457 94.161,185.439 95.200 C 184.900 95.750,183.278 97.280,181.834 98.600 C 180.390 99.920,179.207 101.220,179.205 101.490 C 179.202 101.759,178.663 102.257,178.007 102.596 C 177.350 102.936,176.537 103.747,176.200 104.400 C 175.863 105.053,175.062 105.858,174.422 106.189 C 173.781 106.520,173.140 107.160,172.997 107.611 C 172.854 108.061,172.010 108.889,171.122 109.449 C 170.234 110.010,169.419 110.807,169.311 111.220 C 169.203 111.633,168.501 112.334,167.751 112.776 C 167.001 113.218,166.213 114.039,166.000 114.600 C 165.787 115.161,165.294 115.729,164.906 115.862 C 164.518 115.995,163.445 116.845,162.522 117.752 C 161.600 118.658,160.520 119.718,160.122 120.106 C 157.349 122.818,155.600 124.764,155.600 125.140 C 155.600 125.382,155.073 125.852,154.428 126.185 C 153.784 126.519,153.140 127.160,152.997 127.611 C 152.854 128.061,152.045 128.867,151.200 129.400 C 150.355 129.933,149.551 130.724,149.414 131.156 C 149.277 131.588,148.540 132.311,147.776 132.761 C 147.012 133.212,146.218 134.026,146.011 134.571 C 145.804 135.116,145.090 135.843,144.424 136.188 C 143.758 136.532,142.942 137.338,142.611 137.978 C 142.280 138.619,141.640 139.260,141.189 139.403 C 140.739 139.546,139.933 140.355,139.400 141.200 C 138.867 142.045,138.063 142.853,137.615 142.995 C 137.167 143.138,136.800 143.427,136.800 143.639 C 136.800 143.851,135.225 145.647,133.300 147.632 C 131.375 149.616,128.360 152.782,126.600 154.668 C 124.840 156.553,122.764 158.749,121.988 159.549 C 121.211 160.348,119.960 161.901,119.209 163.001 C 118.458 164.100,117.614 165.180,117.334 165.400 C 117.055 165.620,116.529 166.520,116.166 167.400 C 115.803 168.280,114.995 169.582,114.370 170.294 C 113.746 171.006,112.978 172.452,112.665 173.506 C 112.352 174.561,111.649 176.082,111.103 176.886 C 107.906 181.598,107.949 204.333,111.164 208.475 C 111.558 208.984,112.278 210.601,112.763 212.070 C 113.248 213.538,113.920 214.967,114.255 215.246 C 114.591 215.524,115.388 216.787,116.027 218.053 C 116.665 219.318,117.482 220.518,117.841 220.719 C 118.199 220.920,118.877 221.824,119.346 222.729 C 119.816 223.633,121.997 226.355,124.194 228.776 L 128.189 233.179 129.794 232.929 C 131.929 232.597,133.193 231.522,146.730 218.536 C 149.519 215.861,152.610 212.927,153.600 212.016 C 155.854 209.943,156.072 209.727,161.288 204.388 C 163.646 201.975,165.757 200.000,165.978 200.000 C 166.199 200.000,166.647 199.482,166.975 198.848 C 167.303 198.215,168.207 197.321,168.985 196.862 C 169.763 196.403,170.400 195.825,170.400 195.579 C 170.400 195.332,172.335 193.267,174.700 190.990 C 177.065 188.713,179.408 186.434,179.907 185.925 C 180.406 185.416,181.061 184.755,181.362 184.455 C 181.663 184.155,182.378 183.435,182.951 182.855 C 185.117 180.664,186.272 179.511,187.658 178.158 C 189.203 176.648,190.756 175.070,191.296 174.458 C 191.616 174.096,192.166 173.530,192.518 173.200 C 193.145 172.613,198.513 167.311,199.497 166.307 C 199.770 166.028,201.607 164.090,203.578 162.000 C 205.550 159.910,207.452 157.930,207.805 157.600 C 208.159 157.270,208.932 156.496,209.524 155.881 C 213.240 152.016,215.340 150.000,215.653 150.000 C 215.850 150.000,216.367 149.415,216.801 148.700 C 217.614 147.360,221.718 142.809,227.512 136.822 C 229.333 134.940,230.930 132.989,231.059 132.486 C 231.188 131.983,231.810 131.305,232.440 130.979 C 233.071 130.653,233.861 129.855,234.197 129.205 C 234.533 128.555,235.166 127.832,235.603 127.598 C 236.040 127.365,236.755 126.472,237.192 125.616 C 237.629 124.759,238.352 123.942,238.798 123.801 C 239.244 123.659,239.901 122.971,240.259 122.272 C 240.617 121.572,241.560 120.338,242.355 119.528 C 244.441 117.403,246.538 114.839,247.692 113.000 C 248.244 112.120,249.069 111.066,249.525 110.659 C 249.982 110.251,250.469 109.396,250.609 108.758 C 250.749 108.121,251.464 106.881,252.198 106.002 C 253.010 105.030,253.699 103.630,253.957 102.426 C 254.190 101.338,254.924 99.401,255.588 98.124 C 257.467 94.503,257.534 83.760,255.701 79.925 C 255.038 78.536,254.188 76.320,253.813 75.000 C 253.438 73.680,252.796 72.238,252.386 71.796 C 251.976 71.354,251.188 69.969,250.635 68.718 C 250.082 67.467,249.270 66.252,248.831 66.017 C 248.392 65.782,247.690 64.827,247.271 63.895 C 246.564 62.324,244.002 59.532,237.567 53.324 C 234.500 50.365,232.062 49.621,230.598 51.198 M239.200 57.324 C 244.007 62.040,245.341 63.585,246.448 65.719 C 246.881 66.555,247.493 67.337,247.806 67.458 C 248.120 67.578,248.841 68.694,249.408 69.938 C 249.975 71.182,250.863 72.830,251.382 73.600 C 251.900 74.370,252.708 76.620,253.177 78.600 C 253.646 80.580,254.266 82.830,254.554 83.600 C 255.159 85.217,254.802 94.290,254.066 96.000 C 253.829 96.550,253.337 98.405,252.973 100.123 C 252.557 102.080,251.956 103.666,251.363 104.371 C 250.842 104.990,250.044 106.364,249.590 107.423 C 249.136 108.483,248.431 109.583,248.024 109.868 C 247.617 110.153,246.807 111.200,246.225 112.193 C 245.643 113.187,245.016 114.000,244.832 114.000 C 244.648 114.000,243.805 115.005,242.959 116.234 C 242.112 117.463,241.085 118.647,240.676 118.866 C 240.267 119.085,239.677 119.876,239.364 120.624 C 239.052 121.372,238.339 122.284,237.781 122.649 C 237.222 123.015,236.548 123.726,236.283 124.229 C 236.017 124.732,234.517 126.551,232.949 128.271 C 231.381 129.992,229.131 132.481,227.949 133.802 C 226.767 135.123,224.027 138.043,221.859 140.290 C 219.691 142.538,217.441 145.020,216.859 145.807 C 216.277 146.594,212.740 150.350,209.000 154.154 C 205.260 157.958,201.084 162.225,199.721 163.635 C 198.357 165.046,196.962 166.470,196.621 166.800 C 195.037 168.331,194.303 169.071,193.484 169.965 C 192.998 170.496,191.957 171.576,191.171 172.365 C 190.386 173.154,189.436 174.295,189.062 174.900 C 188.688 175.505,188.187 176.000,187.949 176.000 C 187.387 176.000,179.200 184.183,179.200 184.744 C 179.200 184.979,178.795 185.376,178.300 185.626 C 177.305 186.128,174.037 189.122,171.634 191.732 C 170.398 193.075,169.144 194.345,166.684 196.748 C 165.190 198.207,162.130 201.238,159.884 203.485 C 157.638 205.731,155.504 207.865,155.142 208.227 C 154.781 208.589,153.940 209.420,153.275 210.075 C 152.609 210.729,151.915 211.415,151.732 211.599 C 151.550 211.782,150.424 212.803,149.230 213.866 C 148.037 214.930,146.507 216.356,145.830 217.035 C 145.154 217.714,142.440 220.212,139.800 222.586 C 137.160 224.959,134.229 227.688,133.286 228.651 C 130.520 231.474,128.954 231.250,125.591 227.550 C 124.166 225.982,122.506 224.177,121.902 223.538 C 121.299 222.900,120.451 221.684,120.019 220.838 C 119.587 219.991,118.970 219.197,118.646 219.073 C 118.323 218.949,117.677 217.982,117.211 216.924 C 116.744 215.866,115.929 214.370,115.398 213.600 C 114.867 212.830,114.057 210.981,113.598 209.491 C 113.138 208.001,112.429 206.201,112.023 205.491 C 110.865 203.470,110.400 199.532,110.402 191.767 C 110.405 184.368,110.627 182.840,112.211 179.353 C 112.722 178.227,113.336 176.579,113.576 175.690 C 113.815 174.801,114.631 173.172,115.390 172.070 C 116.148 170.967,116.879 169.623,117.015 169.084 C 117.150 168.544,117.877 167.448,118.631 166.650 C 119.384 165.851,120.000 165.041,120.000 164.850 C 120.000 164.456,122.952 161.028,127.623 156.000 C 129.360 154.130,131.514 151.790,132.410 150.800 C 134.078 148.958,134.710 148.299,136.576 146.455 C 137.163 145.875,138.309 144.645,139.122 143.721 C 139.935 142.798,140.920 141.718,141.310 141.321 C 143.134 139.469,147.251 135.323,147.935 134.649 C 150.342 132.279,151.250 131.374,154.510 128.098 C 155.880 126.721,158.350 124.240,160.000 122.583 C 161.650 120.927,163.180 119.382,163.400 119.151 C 163.620 118.920,164.224 118.341,164.742 117.865 C 165.260 117.389,165.932 116.730,166.235 116.400 C 166.773 115.814,167.458 115.124,169.709 112.897 C 170.319 112.294,171.091 111.530,171.425 111.200 C 171.758 110.870,173.909 108.710,176.203 106.400 C 180.904 101.669,182.376 100.193,183.100 99.487 C 183.375 99.219,183.964 98.640,184.410 98.200 C 194.132 88.593,198.431 84.467,199.332 83.879 C 199.939 83.482,200.626 82.742,200.857 82.234 C 201.088 81.727,201.894 81.017,202.646 80.659 C 203.399 80.300,204.211 79.575,204.451 79.047 C 204.692 78.520,205.327 77.888,205.863 77.644 C 206.399 77.400,207.144 76.661,207.519 76.003 C 207.893 75.344,208.345 74.804,208.521 74.803 C 208.887 74.800,211.637 72.233,218.382 65.600 C 233.673 50.562,232.700 50.949,239.200 57.324 M243.940 150.500 C 243.603 150.775,242.449 151.990,241.375 153.200 C 240.015 154.734,239.844 155.025,240.812 154.163 C 242.881 152.318,244.993 151.153,245.445 151.605 C 245.656 151.816,246.867 152.614,248.135 153.378 L 250.440 154.766 249.192 153.190 C 246.972 150.386,245.195 149.476,243.940 150.500 M259.038 165.936 C 259.399 167.349,260.775 170.337,261.181 170.588 C 261.378 170.710,261.841 171.719,262.210 172.831 C 263.028 175.293,263.326 175.202,262.846 172.636 C 262.637 171.516,262.074 170.302,261.470 169.670 C 260.908 169.081,260.077 167.790,259.623 166.800 C 259.170 165.810,258.906 165.421,259.038 165.936 M222.400 171.587 C 221.190 172.675,220.304 173.573,220.432 173.583 C 220.560 173.592,221.640 172.701,222.832 171.602 C 224.024 170.504,224.910 169.606,224.800 169.607 C 224.690 169.608,223.610 170.499,222.400 171.587 M211.519 181.988 C 210.353 183.081,209.062 184.221,208.649 184.520 C 207.970 185.012,207.949 185.203,208.428 186.528 C 208.985 188.068,209.582 187.836,209.594 186.073 C 209.601 185.013,211.170 182.707,212.971 181.111 C 213.647 180.512,214.073 180.017,213.919 180.011 C 213.764 180.005,212.684 180.895,211.519 181.988 M210.412 190.881 C 210.381 191.603,211.357 193.073,212.327 193.765 L 213.400 194.530 212.354 193.365 C 211.778 192.724,211.108 191.840,210.866 191.400 C 210.623 190.960,210.419 190.727,210.412 190.881 M262.102 199.524 C 261.619 200.336,260.660 202.170,259.971 203.600 C 259.282 205.030,258.421 206.560,258.059 207.000 L 257.400 207.800 258.347 207.000 C 258.867 206.560,259.693 205.300,260.182 204.200 C 260.671 203.100,261.361 201.961,261.715 201.668 C 262.344 201.148,263.427 198.493,263.130 198.197 C 263.048 198.115,262.585 198.712,262.102 199.524 M189.888 203.203 C 188.836 204.003,187.672 205.094,187.300 205.629 C 186.929 206.163,186.259 206.925,185.812 207.323 C 185.008 208.038,185.008 208.041,185.804 207.660 C 186.247 207.448,186.967 206.874,187.404 206.385 C 187.842 205.896,188.988 205.156,189.950 204.741 C 191.942 203.881,191.836 203.835,194.900 206.902 C 195.945 207.948,196.800 208.745,196.800 208.673 C 196.800 207.335,195.266 204.715,193.695 203.371 L 191.800 201.748 189.888 203.203 M255.964 209.700 C 255.475 210.415,254.505 211.630,253.809 212.400 C 252.351 214.012,250.898 216.234,251.575 215.816 C 251.826 215.660,252.468 214.842,253.001 213.998 C 253.534 213.154,254.292 212.352,254.685 212.216 C 255.078 212.080,255.778 211.165,256.241 210.184 C 257.240 208.065,257.169 207.940,255.964 209.700 M200.400 217.062 C 200.400 217.260,200.696 217.844,201.058 218.361 C 201.419 218.877,202.041 220.132,202.439 221.150 C 202.992 222.564,203.165 222.764,203.173 222.000 C 203.185 220.760,201.954 217.988,201.063 217.251 C 200.699 216.949,200.400 216.864,200.400 217.062 M248.200 218.951 C 247.384 219.743,247.267 219.977,247.833 219.680 C 248.704 219.224,249.828 218.052,249.557 217.882 C 249.471 217.828,248.860 218.309,248.200 218.951 M224.038 223.200 C 224.014 224.457,224.301 225.483,224.990 226.600 C 226.090 228.387,226.369 234.110,225.554 238.200 C 224.617 242.905,224.617 242.926,225.525 242.440 C 225.977 242.198,226.790 242.000,227.332 242.000 C 228.071 242.000,228.626 241.518,229.558 240.065 C 231.109 237.648,231.118 237.319,229.603 238.398 C 227.621 239.809,227.078 238.653,226.599 232.000 C 226.449 229.910,226.060 227.480,225.735 226.600 C 225.409 225.720,224.902 224.190,224.607 223.200 L 224.072 221.400 224.038 223.200 M159.452 232.840 C 158.161 234.158,157.171 235.300,157.252 235.376 C 157.333 235.452,158.525 234.363,159.900 232.957 C 161.275 231.551,162.265 230.409,162.100 230.421 C 161.935 230.432,160.743 231.521,159.452 232.840 M206.890 244.600 C 206.884 247.555,207.003 249.016,207.200 248.400 C 207.616 247.101,207.626 243.877,207.220 241.600 C 206.976 240.228,206.898 240.940,206.890 244.600 M145.148 247.775 C 142.511 250.538,141.395 251.795,141.047 252.393 C 140.665 253.049,143.775 249.888,144.860 248.518 C 145.223 248.060,145.851 247.499,146.256 247.272 C 146.662 247.046,146.881 246.748,146.745 246.611 C 146.608 246.475,145.890 246.999,145.148 247.775 M137.366 256.500 C 135.598 258.315,133.900 260.160,133.594 260.600 C 132.951 261.526,132.775 261.698,137.388 256.900 C 139.344 254.865,140.863 253.200,140.764 253.200 C 140.664 253.200,139.135 254.685,137.366 256.500 M202.465 264.452 C 202.193 265.250,201.637 266.205,201.230 266.573 C 200.823 266.941,200.020 268.291,199.444 269.573 C 198.869 270.855,198.104 272.147,197.745 272.446 C 197.385 272.744,196.672 273.621,196.161 274.394 C 195.649 275.167,194.818 276.337,194.315 276.993 L 193.400 278.186 194.473 277.393 C 195.063 276.957,195.951 275.880,196.446 275.000 C 196.941 274.120,197.656 273.177,198.033 272.906 C 198.411 272.634,199.268 271.239,199.939 269.806 C 200.609 268.372,201.327 267.200,201.533 267.200 C 202.071 267.200,203.280 264.497,203.106 263.684 C 203.011 263.238,202.787 263.505,202.465 264.452 M125.432 269.617 C 124.569 270.477,123.647 271.811,123.381 272.583 C 122.807 274.255,123.337 274.070,124.264 272.275 C 124.627 271.574,125.144 270.820,125.414 270.600 C 125.920 270.188,127.406 267.979,127.146 268.026 C 127.066 268.041,126.294 268.756,125.432 269.617 M120.867 276.300 C 120.668 276.685,120.279 277.720,120.003 278.600 C 119.727 279.480,119.173 280.562,118.770 281.005 C 118.368 281.447,117.761 282.880,117.420 284.189 C 116.590 287.373,116.696 288.360,117.570 285.600 C 117.953 284.390,118.560 282.837,118.918 282.149 C 119.740 280.571,121.621 275.600,121.396 275.600 C 121.304 275.600,121.066 275.915,120.867 276.300 M187.400 285.671 L 185.800 287.316 187.265 286.237 C 188.071 285.644,188.830 284.897,188.953 284.579 C 189.261 283.777,189.204 283.816,187.400 285.671 M181.600 292.460 C 180.830 293.135,180.562 293.505,181.004 293.281 C 181.735 292.911,183.547 291.178,183.162 291.216 C 183.073 291.225,182.370 291.785,181.600 292.460 M117.016 308.400 C 117.149 309.390,117.956 311.640,118.811 313.400 C 119.665 315.160,120.479 317.082,120.618 317.671 C 120.758 318.259,121.261 319.069,121.736 319.471 C 122.586 320.188,122.589 320.187,121.952 319.400 C 121.595 318.960,120.896 317.340,120.399 315.800 C 119.902 314.260,119.244 312.550,118.938 312.000 C 118.632 311.450,118.020 310.010,117.578 308.800 L 116.775 306.600 117.016 308.400 M167.144 307.500 C 165.993 308.889,165.506 309.600,165.704 309.600 C 165.814 309.600,166.386 308.970,166.973 308.200 C 168.063 306.771,168.195 306.232,167.144 307.500 M123.624 322.520 C 123.578 323.142,124.737 325.013,125.762 325.970 C 126.333 326.503,126.800 327.168,126.800 327.447 C 126.800 327.727,127.268 328.460,127.839 329.078 L 128.878 330.200 128.039 329.046 C 127.578 328.411,127.198 327.691,127.196 327.446 C 127.194 327.201,126.609 326.254,125.896 325.342 C 125.183 324.430,124.386 323.350,124.124 322.942 C 123.861 322.534,123.636 322.344,123.624 322.520 M146.000 328.000 C 145.530 328.660,144.898 329.200,144.596 329.200 C 144.294 329.200,143.937 329.378,143.803 329.595 C 143.649 329.845,143.888 329.868,144.457 329.657 C 145.269 329.357,147.615 326.800,147.079 326.800 C 146.955 326.800,146.470 327.340,146.000 328.000 M129.782 331.200 C 129.958 331.530,130.617 332.340,131.246 333.000 C 131.875 333.660,132.858 334.785,133.430 335.500 C 134.003 336.215,134.732 336.800,135.051 336.800 C 135.873 336.800,138.800 335.256,138.800 334.823 C 138.800 334.624,139.385 333.872,140.100 333.152 C 141.440 331.802,141.091 331.876,139.000 333.384 C 136.331 335.309,135.369 335.431,133.792 334.046 C 133.011 333.361,132.223 332.800,132.041 332.800 C 131.858 332.800,131.203 332.305,130.585 331.700 C 129.967 331.095,129.606 330.870,129.782 331.200 " stroke="none" fill="#949ccc" fill-rule="evenodd"></path><path id="path4" d="M229.507 51.355 C 228.507 52.370,227.493 53.200,227.254 53.200 C 227.016 53.200,226.551 53.720,226.222 54.357 C 225.893 54.993,225.090 55.699,224.438 55.927 C 223.781 56.156,222.973 56.879,222.627 57.548 C 222.284 58.212,221.509 58.992,220.905 59.281 C 220.301 59.571,219.569 60.304,219.278 60.911 C 218.987 61.518,218.320 62.296,217.795 62.640 C 217.270 62.984,216.477 63.881,216.034 64.633 C 215.590 65.385,214.960 66.000,214.634 66.000 C 214.308 66.000,213.560 66.631,212.972 67.401 C 212.384 68.172,211.431 69.029,210.855 69.305 C 210.279 69.581,209.565 70.312,209.270 70.929 C 208.974 71.546,208.432 72.157,208.066 72.285 C 207.070 72.635,205.600 74.064,205.600 74.682 C 205.600 74.981,205.285 75.336,204.900 75.472 C 203.889 75.829,202.400 77.252,202.400 77.862 C 202.400 78.149,201.683 78.750,200.806 79.197 C 199.867 79.676,199.118 80.386,198.983 80.926 C 198.850 81.455,198.256 82.030,197.578 82.286 C 196.932 82.530,196.088 83.286,195.702 83.966 C 195.316 84.646,194.640 85.313,194.200 85.448 C 193.020 85.812,192.000 86.825,192.000 87.635 C 192.000 88.026,191.595 88.470,191.100 88.620 C 189.819 89.011,188.800 90.002,188.800 90.857 C 188.800 91.319,188.272 91.810,187.368 92.188 C 186.427 92.581,185.779 93.200,185.480 93.993 C 185.219 94.686,184.734 95.200,184.342 95.200 C 183.573 95.200,178.400 100.003,178.400 100.718 C 178.400 100.972,177.872 101.452,177.227 101.786 C 176.547 102.138,175.852 102.953,175.571 103.730 C 175.254 104.606,174.685 105.219,173.918 105.508 C 173.200 105.779,172.573 106.418,172.291 107.165 C 172.009 107.911,171.401 108.531,170.714 108.770 C 170.100 108.984,169.220 109.799,168.759 110.580 C 168.298 111.361,167.700 112.000,167.430 112.000 C 166.748 112.000,165.200 113.719,165.200 114.476 C 165.200 114.850,164.717 115.197,163.991 115.342 C 163.172 115.506,162.515 116.037,161.952 116.992 C 161.495 117.766,160.953 118.400,160.747 118.400 C 160.146 118.400,155.200 123.293,155.200 123.887 C 155.200 124.184,154.584 124.790,153.832 125.234 C 153.079 125.678,152.289 126.542,152.076 127.154 C 151.847 127.810,151.192 128.472,150.478 128.768 C 149.786 129.054,149.059 129.775,148.778 130.452 C 148.480 131.174,147.760 131.856,146.938 132.200 C 145.973 132.603,145.522 133.092,145.358 133.908 C 145.201 134.695,144.767 135.188,143.967 135.490 C 143.327 135.732,142.490 136.476,142.106 137.144 C 141.723 137.812,140.997 138.546,140.493 138.776 C 139.989 139.006,139.209 139.817,138.759 140.579 C 138.310 141.341,137.579 142.080,137.134 142.221 C 136.690 142.362,136.066 143.102,135.747 143.865 C 135.374 144.759,134.759 145.395,134.021 145.653 C 133.378 145.877,132.617 146.584,132.288 147.264 C 131.965 147.931,131.273 148.689,130.750 148.949 C 130.228 149.209,129.490 150.078,129.111 150.880 C 128.732 151.683,128.051 152.457,127.596 152.601 C 127.142 152.745,126.324 153.569,125.780 154.432 C 125.235 155.294,124.516 156.000,124.181 156.000 C 123.847 156.000,123.210 156.615,122.766 157.367 C 122.323 158.119,121.521 159.022,120.985 159.373 C 120.449 159.724,119.663 160.684,119.238 161.506 C 118.814 162.328,118.096 163.224,117.643 163.498 C 116.835 163.985,115.200 166.738,115.200 167.610 C 115.200 167.853,114.692 168.479,114.070 169.002 C 113.444 169.529,112.719 170.721,112.442 171.676 C 112.168 172.624,111.408 174.161,110.753 175.091 C 109.877 176.337,109.403 177.699,108.956 180.260 C 108.622 182.173,108.090 184.107,107.774 184.558 C 106.977 185.697,106.956 197.041,107.748 198.937 C 108.049 199.658,108.520 201.858,108.795 203.824 C 109.330 207.666,110.069 209.930,111.022 210.651 C 111.350 210.899,111.890 212.159,112.221 213.451 C 112.655 215.140,113.214 216.172,114.212 217.125 C 114.976 217.854,115.600 218.799,115.600 219.224 C 115.600 219.650,116.202 220.673,116.938 221.499 C 117.674 222.324,118.766 223.847,119.365 224.882 C 119.964 225.917,120.809 226.876,121.242 227.013 C 121.676 227.151,122.476 227.969,123.020 228.832 C 123.565 229.694,124.278 230.400,124.605 230.400 C 124.932 230.400,125.200 230.567,125.200 230.772 C 125.200 233.114,130.882 235.085,132.491 233.300 C 134.612 230.945,138.359 227.447,139.272 226.969 C 139.861 226.661,140.454 226.060,140.589 225.633 C 140.725 225.207,141.460 224.489,142.224 224.039 C 142.988 223.588,143.783 222.770,143.992 222.221 C 144.207 221.657,144.970 220.973,145.747 220.648 C 146.504 220.332,147.245 219.690,147.393 219.222 C 147.542 218.753,148.369 217.924,149.232 217.380 C 150.094 216.835,150.800 216.124,150.800 215.800 C 150.800 215.476,151.527 214.751,152.416 214.190 C 153.304 213.629,154.191 212.749,154.387 212.234 C 154.583 211.719,155.303 211.103,155.987 210.865 C 156.779 210.589,157.373 210.025,157.622 209.315 C 157.836 208.702,158.551 207.892,159.210 207.517 C 159.868 207.141,160.571 206.402,160.771 205.875 C 160.972 205.348,161.783 204.535,162.574 204.068 C 163.365 203.602,164.175 202.791,164.375 202.266 C 164.611 201.645,165.173 201.225,165.986 201.063 C 166.929 200.874,167.380 200.468,167.823 199.406 C 168.146 198.633,168.647 198.000,168.936 198.000 C 169.646 198.000,171.200 196.299,171.200 195.523 C 171.200 195.179,171.762 194.664,172.449 194.380 C 173.211 194.064,173.906 193.364,174.231 192.587 C 174.545 191.836,175.250 191.111,175.948 190.822 C 176.608 190.548,177.345 189.816,177.614 189.166 C 177.880 188.525,178.321 188.000,178.595 188.000 C 179.420 188.000,181.200 186.390,181.200 185.643 C 181.200 185.239,181.748 184.703,182.500 184.372 C 183.256 184.039,184.051 183.260,184.400 182.509 C 184.730 181.798,185.284 181.213,185.630 181.209 C 186.353 181.199,188.000 179.580,188.000 178.880 C 188.000 178.622,188.624 178.150,189.386 177.832 C 190.298 177.451,190.861 176.897,191.033 176.212 C 191.180 175.627,191.812 174.904,192.478 174.559 C 193.130 174.223,193.913 173.348,194.219 172.617 C 194.586 171.738,195.196 171.140,196.018 170.854 C 196.804 170.580,197.421 169.998,197.695 169.274 C 197.948 168.603,198.602 167.948,199.271 167.696 C 199.986 167.426,200.631 166.746,200.993 165.879 C 201.374 164.967,201.927 164.405,202.612 164.233 C 203.300 164.060,203.851 163.497,204.238 162.572 C 204.564 161.792,205.252 161.008,205.792 160.803 C 206.325 160.600,207.049 159.879,207.400 159.200 C 207.751 158.521,208.484 157.796,209.029 157.589 C 209.574 157.382,210.376 156.608,210.812 155.869 C 211.248 155.131,212.045 154.326,212.583 154.081 C 213.121 153.835,213.849 153.079,214.200 152.400 C 214.551 151.721,215.288 150.995,215.839 150.785 C 216.393 150.575,217.086 149.814,217.393 149.079 C 217.698 148.349,218.400 147.546,218.954 147.294 C 219.508 147.041,220.240 146.297,220.579 145.640 C 220.919 144.983,221.688 144.210,222.287 143.922 C 222.886 143.635,223.562 143.040,223.788 142.600 C 224.015 142.160,225.055 140.950,226.100 139.911 C 227.145 138.871,228.000 137.848,228.000 137.637 C 228.000 137.427,228.362 137.139,228.804 136.999 C 229.247 136.858,229.869 136.261,230.186 135.672 C 230.504 135.082,232.139 133.160,233.820 131.400 C 235.500 129.640,237.196 127.509,237.589 126.665 C 237.982 125.821,238.848 124.799,239.513 124.394 C 240.278 123.929,240.826 123.193,241.001 122.395 C 241.197 121.502,241.603 121.018,242.384 120.746 C 242.992 120.534,243.711 119.874,243.981 119.280 C 244.251 118.686,245.102 117.570,245.872 116.800 C 248.687 113.985,250.776 111.174,251.187 109.649 C 251.427 108.757,252.028 107.812,252.588 107.445 C 253.574 106.799,254.800 103.630,254.800 101.727 C 254.800 101.217,254.990 100.800,255.222 100.800 C 257.927 100.800,258.426 81.307,255.819 77.466 C 255.291 76.689,254.571 74.916,254.218 73.526 C 253.780 71.803,253.209 70.654,252.422 69.912 C 251.788 69.313,251.154 68.301,251.014 67.662 C 250.873 67.023,250.300 66.073,249.739 65.550 C 249.179 65.028,248.213 63.601,247.595 62.380 C 246.929 61.067,246.054 59.971,245.454 59.697 C 244.895 59.443,244.171 58.718,243.845 58.086 C 243.518 57.455,242.619 56.505,241.847 55.976 C 241.075 55.447,240.258 54.606,240.031 54.107 C 239.803 53.608,239.429 53.200,239.200 53.200 C 238.970 53.200,237.972 52.453,236.982 51.540 C 234.153 48.933,231.949 48.878,229.507 51.355 M237.567 53.324 C 244.002 59.532,246.564 62.324,247.271 63.895 C 247.690 64.827,248.392 65.782,248.831 66.017 C 249.270 66.252,250.082 67.467,250.635 68.718 C 251.188 69.969,251.976 71.354,252.386 71.796 C 252.796 72.238,253.438 73.680,253.813 75.000 C 254.188 76.320,255.038 78.536,255.701 79.925 C 257.534 83.760,257.467 94.503,255.588 98.124 C 254.924 99.401,254.190 101.338,253.957 102.426 C 253.699 103.630,253.010 105.030,252.198 106.002 C 251.464 106.881,250.749 108.121,250.609 108.758 C 250.469 109.396,249.982 110.251,249.525 110.659 C 249.069 111.066,248.244 112.120,247.692 113.000 C 246.538 114.839,244.441 117.403,242.355 119.528 C 241.560 120.338,240.617 121.572,240.259 122.272 C 239.901 122.971,239.244 123.659,238.798 123.801 C 238.352 123.942,237.629 124.759,237.192 125.616 C 236.755 126.472,236.040 127.365,235.603 127.598 C 235.166 127.832,234.533 128.555,234.197 129.205 C 233.861 129.855,233.071 130.653,232.440 130.979 C 231.810 131.305,231.188 131.983,231.059 132.486 C 230.930 132.989,229.333 134.940,227.512 136.822 C 221.718 142.809,217.614 147.360,216.801 148.700 C 216.367 149.415,215.850 150.000,215.653 150.000 C 215.340 150.000,213.240 152.016,209.524 155.881 C 208.932 156.496,208.159 157.270,207.805 157.600 C 207.452 157.930,205.550 159.910,203.578 162.000 C 201.607 164.090,199.770 166.028,199.497 166.307 C 198.513 167.311,193.145 172.613,192.518 173.200 C 192.166 173.530,191.616 174.096,191.296 174.458 C 190.756 175.070,189.203 176.648,187.658 178.158 C 186.272 179.511,185.117 180.664,182.951 182.855 C 182.378 183.435,181.663 184.155,181.362 184.455 C 181.061 184.755,180.406 185.416,179.907 185.925 C 179.408 186.434,177.065 188.713,174.700 190.990 C 172.335 193.267,170.400 195.332,170.400 195.579 C 170.400 195.825,169.763 196.403,168.985 196.862 C 168.207 197.321,167.303 198.215,166.975 198.848 C 166.647 199.482,166.199 200.000,165.978 200.000 C 165.757 200.000,163.646 201.975,161.288 204.388 C 156.072 209.727,155.854 209.943,153.600 212.016 C 152.610 212.927,149.519 215.861,146.730 218.536 C 133.193 231.522,131.929 232.597,129.794 232.929 L 128.189 233.179 124.194 228.776 C 121.997 226.355,119.816 223.633,119.346 222.729 C 118.877 221.824,118.199 220.920,117.841 220.719 C 117.482 220.518,116.665 219.318,116.027 218.053 C 115.388 216.787,114.591 215.524,114.255 215.246 C 113.920 214.967,113.248 213.538,112.763 212.070 C 112.278 210.601,111.558 208.984,111.164 208.475 C 107.949 204.333,107.906 181.598,111.103 176.886 C 111.649 176.082,112.352 174.561,112.665 173.506 C 112.978 172.452,113.746 171.006,114.370 170.294 C 114.995 169.582,115.803 168.280,116.166 167.400 C 116.529 166.520,117.055 165.620,117.334 165.400 C 117.614 165.180,118.458 164.100,119.209 163.001 C 119.960 161.901,121.211 160.348,121.988 159.549 C 122.764 158.749,124.840 156.553,126.600 154.668 C 128.360 152.782,131.375 149.616,133.300 147.632 C 135.225 145.647,136.800 143.851,136.800 143.639 C 136.800 143.427,137.167 143.138,137.615 142.995 C 138.063 142.853,138.867 142.045,139.400 141.200 C 139.933 140.355,140.739 139.546,141.189 139.403 C 141.640 139.260,142.280 138.619,142.611 137.978 C 142.942 137.338,143.758 136.532,144.424 136.188 C 145.090 135.843,145.804 135.116,146.011 134.571 C 146.218 134.026,147.012 133.212,147.776 132.761 C 148.540 132.311,149.277 131.588,149.414 131.156 C 149.551 130.724,150.355 129.933,151.200 129.400 C 152.045 128.867,152.854 128.061,152.997 127.611 C 153.140 127.160,153.784 126.519,154.428 126.185 C 155.073 125.852,155.600 125.382,155.600 125.140 C 155.600 124.764,157.349 122.818,160.122 120.106 C 160.520 119.718,161.600 118.658,162.522 117.752 C 163.445 116.845,164.518 115.995,164.906 115.862 C 165.294 115.729,165.787 115.161,166.000 114.600 C 166.213 114.039,167.001 113.218,167.751 112.776 C 168.501 112.334,169.203 111.633,169.311 111.220 C 169.419 110.807,170.234 110.010,171.122 109.449 C 172.010 108.889,172.854 108.061,172.997 107.611 C 173.140 107.160,173.781 106.520,174.422 106.189 C 175.062 105.858,175.863 105.053,176.200 104.400 C 176.537 103.747,177.350 102.936,178.007 102.596 C 178.663 102.257,179.202 101.759,179.205 101.490 C 179.207 101.220,180.390 99.920,181.834 98.600 C 183.278 97.280,184.900 95.750,185.439 95.200 C 186.457 94.161,186.580 94.038,188.668 91.983 C 189.365 91.297,190.085 90.569,190.268 90.367 C 190.450 90.164,191.140 89.467,191.800 88.819 C 192.460 88.171,193.314 87.316,193.697 86.920 C 194.081 86.524,195.926 84.760,197.797 83.000 C 205.127 76.107,228.615 53.335,230.598 51.198 C 232.062 49.621,234.500 50.365,237.567 53.324 M242.800 147.970 C 241.810 148.606,240.597 149.548,240.104 150.063 C 237.065 153.241,234.046 156.000,233.608 156.000 C 233.377 156.000,232.904 156.593,232.559 157.318 C 232.213 158.043,231.446 158.850,230.855 159.112 C 230.264 159.373,229.459 160.131,229.066 160.796 C 228.674 161.460,227.826 162.276,227.182 162.609 C 226.538 162.942,225.901 163.654,225.767 164.191 C 225.632 164.728,224.891 165.539,224.121 165.994 C 223.350 166.448,222.629 167.169,222.517 167.596 C 222.405 168.023,221.715 168.725,220.982 169.158 C 220.249 169.590,219.375 170.475,219.039 171.125 C 218.703 171.775,217.975 172.420,217.421 172.559 C 216.868 172.698,216.138 173.346,215.801 173.999 C 215.463 174.652,214.685 175.446,214.071 175.763 C 213.458 176.080,212.749 176.795,212.495 177.351 C 212.242 177.907,211.490 178.643,210.824 178.988 C 210.158 179.332,209.342 180.138,209.011 180.778 C 208.680 181.419,208.045 182.059,207.600 182.200 C 205.171 182.971,204.927 189.346,207.246 191.440 C 207.709 191.858,208.605 193.225,209.238 194.477 C 209.870 195.729,210.662 196.907,210.997 197.094 C 211.331 197.281,211.970 198.777,212.415 200.417 C 212.903 202.214,213.578 203.718,214.112 204.200 C 214.601 204.640,215.232 205.900,215.515 207.000 C 215.799 208.100,216.556 209.855,217.199 210.901 C 217.880 212.009,218.632 214.095,219.002 215.901 C 219.351 217.605,220.078 219.852,220.619 220.894 C 221.950 223.459,222.401 226.743,222.733 236.275 C 223.052 245.423,223.732 247.521,225.772 245.642 C 226.227 245.222,227.471 244.473,228.536 243.978 C 229.602 243.483,230.656 242.675,230.881 242.183 C 231.105 241.691,231.709 241.097,232.223 240.862 C 232.737 240.628,233.480 239.933,233.873 239.318 C 234.266 238.703,235.994 236.760,237.713 235.000 C 242.356 230.245,242.949 229.597,244.797 227.256 C 247.151 224.273,247.406 223.986,250.923 220.386 C 252.640 218.628,254.237 216.639,254.472 215.966 C 254.708 215.287,255.326 214.580,255.859 214.378 C 256.387 214.177,257.196 213.375,257.655 212.596 C 258.115 211.817,258.837 210.994,259.260 210.768 C 259.683 210.541,260.463 209.376,260.993 208.178 C 261.523 206.980,262.113 206.000,262.304 206.000 C 262.748 206.000,264.400 203.084,264.400 202.301 C 264.400 201.976,264.927 201.047,265.571 200.237 C 268.832 196.133,268.757 174.518,265.475 172.520 C 265.185 172.344,264.721 171.160,264.443 169.889 C 264.077 168.213,263.578 167.224,262.628 166.289 C 261.908 165.580,261.190 164.471,261.033 163.824 C 260.748 162.653,259.663 160.899,258.311 159.425 C 257.920 158.998,257.600 158.496,257.600 158.310 C 257.600 158.123,256.835 157.170,255.900 156.192 C 254.202 154.417,253.664 153.876,250.879 151.155 C 250.066 150.360,248.805 149.405,248.079 149.033 C 247.352 148.662,246.407 148.007,245.979 147.579 C 244.987 146.587,244.947 146.592,242.800 147.970 M246.804 150.803 C 247.424 151.244,248.820 152.729,249.906 154.103 C 250.992 155.476,252.789 157.516,253.900 158.636 C 255.010 159.756,256.301 161.421,256.767 162.336 C 257.234 163.251,257.803 164.000,258.030 164.000 C 258.258 164.000,258.898 165.028,259.454 166.284 C 260.009 167.539,260.957 169.129,261.560 169.816 C 262.429 170.806,262.751 171.736,263.116 174.315 C 263.369 176.103,264.033 178.653,264.592 179.982 C 265.968 183.251,266.062 188.330,264.810 191.819 C 264.340 193.128,263.693 195.550,263.372 197.200 C 263.050 198.853,262.425 200.649,261.981 201.200 C 261.537 201.750,260.793 203.010,260.328 204.000 C 259.862 204.990,258.792 206.586,257.950 207.546 C 257.108 208.506,256.199 209.900,255.930 210.644 C 255.661 211.388,255.110 212.102,254.705 212.230 C 254.301 212.358,253.545 213.136,253.026 213.959 C 252.507 214.781,251.605 215.766,251.023 216.148 C 250.441 216.530,249.800 217.273,249.600 217.800 C 249.400 218.327,248.733 219.078,248.118 219.469 C 247.503 219.861,246.837 220.444,246.638 220.765 C 246.439 221.087,245.489 222.171,244.528 223.175 C 243.566 224.179,242.128 225.720,241.331 226.600 C 240.535 227.480,238.019 230.141,235.740 232.513 C 233.461 234.885,230.861 237.990,229.962 239.413 C 228.670 241.459,228.121 242.000,227.338 242.000 C 226.793 242.000,225.977 242.198,225.525 242.440 C 224.617 242.926,224.617 242.905,225.554 238.200 C 226.358 234.162,226.110 228.535,225.046 226.671 C 224.369 225.487,224.012 224.067,223.820 221.800 C 223.652 219.804,223.169 217.697,222.538 216.200 C 221.982 214.880,221.003 212.283,220.361 210.429 C 219.720 208.575,218.939 206.775,218.627 206.429 C 218.314 206.083,217.612 204.569,217.066 203.064 C 216.520 201.559,215.714 199.993,215.276 199.585 C 214.837 199.176,214.174 197.887,213.802 196.721 C 213.431 195.554,212.690 194.201,212.156 193.713 C 210.304 192.021,207.678 185.224,208.613 184.546 C 210.288 183.330,213.929 180.012,218.430 175.600 C 221.011 173.070,226.580 167.670,230.805 163.600 C 235.031 159.530,239.413 155.218,240.544 154.017 C 241.675 152.817,242.997 151.422,243.482 150.917 C 244.566 149.790,245.344 149.763,246.804 150.803 M189.125 200.911 C 188.313 201.620,187.098 202.619,186.425 203.130 C 185.751 203.642,185.200 204.278,185.200 204.543 C 185.200 204.808,184.661 205.228,184.002 205.477 C 183.343 205.726,182.502 206.454,182.134 207.096 C 181.765 207.738,180.953 208.557,180.328 208.915 C 179.704 209.274,179.018 210.028,178.804 210.591 C 178.589 211.154,177.973 211.782,177.434 211.987 C 176.895 212.192,176.037 212.926,175.527 213.619 C 175.017 214.311,174.108 215.133,173.507 215.446 C 172.905 215.758,172.136 216.550,171.796 217.207 C 171.457 217.863,170.943 218.400,170.654 218.400 C 169.844 218.400,165.200 223.231,165.200 224.074 C 165.200 224.510,164.766 224.985,164.158 225.216 C 163.190 225.584,155.200 233.246,155.200 233.806 C 155.200 234.197,154.273 235.017,153.499 235.310 C 153.114 235.456,152.493 236.217,152.119 237.000 C 151.715 237.847,151.056 238.521,150.493 238.662 C 149.973 238.793,149.116 239.583,148.588 240.418 C 148.061 241.253,147.271 242.050,146.833 242.189 C 146.395 242.329,145.822 243.036,145.559 243.762 C 145.228 244.679,144.686 245.225,143.785 245.551 C 143.009 245.832,142.307 246.457,142.036 247.110 C 141.787 247.709,141.065 248.496,140.433 248.858 C 139.729 249.260,139.179 249.983,139.018 250.719 C 138.836 251.548,138.382 252.076,137.558 252.417 C 136.900 252.690,136.118 253.382,135.820 253.956 C 135.522 254.530,134.711 255.417,134.019 255.927 C 133.326 256.437,132.592 257.296,132.386 257.837 C 132.180 258.378,131.694 258.932,131.306 259.069 C 130.490 259.357,126.000 263.866,126.000 264.397 C 126.000 264.593,125.100 265.782,124.000 267.039 C 122.900 268.296,122.000 269.560,122.000 269.848 C 122.000 270.136,121.454 270.994,120.787 271.754 C 120.119 272.514,119.292 273.961,118.949 274.968 C 118.606 275.976,118.190 276.800,118.026 276.800 C 117.548 276.800,115.711 280.467,115.420 282.000 C 115.274 282.770,114.718 284.300,114.184 285.400 C 111.716 290.482,111.884 306.058,114.445 309.662 C 114.860 310.246,115.200 310.978,115.200 311.289 C 115.200 312.687,116.548 316.185,117.426 317.062 C 117.957 317.593,118.498 318.517,118.628 319.114 C 119.092 321.243,119.762 322.621,121.031 324.056 C 121.739 324.856,122.439 325.893,122.587 326.360 C 122.735 326.827,123.363 327.470,123.981 327.790 C 124.779 328.203,125.184 328.789,125.375 329.809 C 125.915 332.688,134.276 340.089,135.761 339.003 C 136.223 338.665,136.870 338.288,137.200 338.165 C 139.496 337.310,140.440 336.684,140.965 335.669 C 141.355 334.913,141.985 334.423,142.765 334.267 C 143.561 334.108,144.177 333.618,144.593 332.813 C 144.938 332.146,145.484 331.600,145.806 331.600 C 146.128 331.600,147.385 330.700,148.600 329.600 C 149.815 328.500,150.976 327.600,151.181 327.600 C 151.386 327.600,152.993 326.170,154.753 324.423 C 156.512 322.676,158.502 320.961,159.176 320.613 C 159.849 320.264,160.400 319.788,160.400 319.554 C 160.400 319.320,161.165 318.332,162.100 317.358 C 163.622 315.774,164.237 315.149,166.400 312.986 C 166.730 312.656,168.203 311.174,169.674 309.693 C 171.145 308.212,173.395 305.977,174.674 304.726 C 175.953 303.476,177.398 302.036,177.884 301.526 C 178.371 301.017,179.091 300.310,179.484 299.955 C 179.878 299.601,180.820 298.296,181.578 297.055 C 182.336 295.815,183.148 294.800,183.382 294.800 C 184.242 294.800,187.170 291.506,187.817 289.811 C 188.289 288.575,188.771 287.994,189.468 287.819 C 190.082 287.665,190.661 287.072,191.007 286.244 C 191.312 285.514,192.019 284.617,192.579 284.251 C 193.138 283.884,193.852 282.972,194.164 282.224 C 194.477 281.476,195.091 280.672,195.530 280.437 C 195.969 280.202,196.737 279.333,197.237 278.505 C 197.736 277.677,198.730 276.338,199.446 275.528 C 200.161 274.719,200.927 273.404,201.147 272.607 C 201.367 271.809,201.995 270.804,202.542 270.374 C 203.089 269.944,203.851 268.738,204.234 267.696 C 204.618 266.653,205.340 265.350,205.840 264.800 C 207.069 263.448,207.472 262.254,207.999 258.405 C 208.246 256.606,208.788 254.474,209.205 253.667 C 211.204 249.794,211.299 242.736,209.454 235.026 C 208.714 231.932,207.924 227.993,207.698 226.274 C 207.397 223.981,206.967 222.632,206.083 221.210 C 205.420 220.144,204.573 218.225,204.202 216.946 C 203.830 215.667,203.002 214.025,202.363 213.297 C 201.723 212.568,201.200 211.684,201.200 211.332 C 201.200 209.906,200.198 207.496,199.182 206.480 C 198.588 205.886,197.801 204.751,197.433 203.958 C 197.065 203.165,196.322 202.279,195.782 201.990 C 195.242 201.701,194.800 201.320,194.800 201.143 C 194.800 199.484,190.938 199.326,189.125 200.911 M196.417 207.454 C 196.867 208.803,197.588 210.227,198.019 210.617 C 198.451 211.008,199.165 212.538,199.605 214.017 C 200.046 215.497,200.687 216.940,201.029 217.224 C 202.036 218.060,202.728 219.706,203.374 222.804 C 203.707 224.402,204.225 226.090,204.524 226.555 C 205.324 227.796,205.635 229.051,205.973 232.400 C 206.139 234.050,206.609 237.690,207.016 240.490 C 207.720 245.327,207.723 245.755,207.082 249.090 C 206.712 251.020,206.310 253.680,206.190 255.000 C 206.046 256.586,205.505 258.350,204.596 260.200 C 203.839 261.740,203.121 263.655,203.000 264.455 C 202.879 265.256,202.337 266.354,201.796 266.895 C 201.254 267.437,200.346 268.896,199.777 270.137 C 199.209 271.378,198.424 272.620,198.032 272.897 C 197.640 273.174,197.021 273.979,196.656 274.687 C 196.291 275.395,195.564 276.385,195.041 276.887 C 193.540 278.326,189.200 283.659,189.200 284.064 C 189.200 284.265,188.435 285.210,187.500 286.164 C 184.409 289.317,183.486 290.376,183.029 291.292 C 182.780 291.791,182.003 292.559,181.302 292.999 C 180.600 293.440,179.928 294.085,179.808 294.432 C 179.578 295.096,170.045 305.092,164.196 310.800 C 163.858 311.130,161.726 313.290,159.458 315.600 C 157.190 317.910,153.756 321.240,151.827 323.000 C 149.898 324.760,147.566 326.965,146.644 327.900 C 145.722 328.835,144.750 329.600,144.484 329.600 C 144.218 329.600,143.259 330.320,142.352 331.200 C 141.445 332.080,140.555 332.800,140.374 332.800 C 140.193 332.800,139.720 333.357,139.323 334.038 C 137.782 336.678,134.942 337.381,133.417 335.500 C 131.887 333.612,130.013 331.471,128.300 329.654 C 127.475 328.779,126.800 327.810,126.800 327.501 C 126.800 327.192,126.326 326.503,125.746 325.970 C 125.166 325.436,124.252 324.010,123.714 322.800 C 123.176 321.590,122.320 320.150,121.813 319.600 C 121.305 319.050,120.766 318.150,120.614 317.600 C 120.462 317.050,119.639 315.160,118.784 313.400 C 117.568 310.895,117.140 309.419,116.812 306.600 C 116.581 304.620,116.196 301.470,115.956 299.600 C 115.595 296.787,115.630 295.667,116.160 293.117 C 116.512 291.421,116.800 289.254,116.800 288.301 C 116.800 285.970,117.870 281.997,118.766 281.005 C 119.165 280.562,119.780 279.331,120.133 278.268 C 120.485 277.206,121.317 275.717,121.981 274.961 C 122.645 274.204,123.303 273.094,123.444 272.493 C 123.584 271.892,124.387 270.680,125.229 269.800 C 127.099 267.843,129.161 265.582,131.800 262.598 C 132.900 261.353,135.478 258.505,137.528 256.268 C 139.579 254.030,141.829 251.520,142.528 250.690 C 143.228 249.859,144.387 248.599,145.105 247.890 C 146.695 246.318,150.284 242.708,151.465 241.491 C 151.941 241.001,153.426 239.559,154.765 238.287 C 156.104 237.015,157.200 235.785,157.200 235.555 C 157.200 235.040,161.793 230.400,162.302 230.400 C 162.504 230.400,163.326 229.725,164.130 228.900 C 164.933 228.075,165.998 226.997,166.495 226.503 C 166.993 226.010,168.120 224.803,169.000 223.821 C 170.768 221.849,171.226 221.379,173.803 218.900 C 174.775 217.965,175.733 217.200,175.932 217.200 C 176.131 217.200,176.770 216.480,177.353 215.600 C 177.935 214.720,178.610 214.000,178.853 214.000 C 179.228 214.000,183.153 210.137,184.684 208.261 C 184.951 207.934,185.500 207.427,185.904 207.134 C 186.309 206.840,186.941 206.163,187.308 205.629 C 187.675 205.094,188.836 204.003,189.888 203.203 L 191.800 201.748 193.700 203.374 C 195.201 204.658,195.772 205.516,196.417 207.454 " stroke="none" fill="#a0e0f9" fill-rule="evenodd"></path></g></svg>